<?xml version="1.0" standalone="no"?>
<!DOCTYPE svg PUBLIC "-//W3C//DTD SVG 20010904//EN"
 "http://www.w3.org/TR/2001/REC-SVG-20010904/DTD/svg10.dtd">
<svg version="1.0" xmlns="http://www.w3.org/2000/svg"
 width="16.000000pt" height="16.000000pt" viewBox="0 0 16.000000 16.000000"
 preserveAspectRatio="xMidYMid meet">
<metadata>
Created by potrace 1.11, written by Peter Selinger 2001-2013
</metadata>
<g transform="translate(0.000000,16.000000) scale(0.003125,-0.003125)"
fill="#000000" stroke="none">
<path d="M2355 5004 c-110 -64 -218 -126 -240 -138 -22 -13 -229 -133 -460
-266 -231 -134 -451 -261 -490 -283 -38 -22 -135 -78 -215 -125 -80 -46 -167
-97 -195 -112 -27 -15 -131 -75 -230 -133 l-180 -104 0 -1283 0 -1283 125 -72
c69 -40 296 -171 505 -292 398 -230 756 -437 815 -471 41 -23 83 -47 375 -217
214 -123 250 -144 345 -199 l46 -25 209 120 c116 66 239 138 275 159 36 21
311 180 612 354 301 174 562 325 580 336 18 11 53 31 78 44 25 13 137 78 250
144 l205 120 3 1280 2 1280 -32 20 c-18 11 -49 29 -68 40 -19 11 -118 68 -220
127 -102 59 -203 118 -225 130 -22 13 -80 46 -130 75 -49 29 -106 62 -125 73
-19 10 -136 78 -260 150 -417 241 -485 280 -615 355 -71 41 -155 90 -185 107
-231 133 -318 183 -335 193 -18 9 -50 -6 -220 -104z m380 -914 c149 -20 217
-37 353 -86 507 -183 887 -638 982 -1174 27 -152 31 -323 11 -470 -58 -432
-293 -817 -647 -1063 -185 -128 -407 -219 -629 -256 -85 -15 -148 -18 -280
-16 -93 2 -183 6 -200 10 -16 3 -61 13 -100 21 -383 79 -753 338 -968 677
-192 301 -279 701 -227 1032 7 38 13 79 15 90 22 143 127 407 217 541 219 330
535 558 905 654 173 45 408 61 568 40z"/>
</g>
</svg>
